<?xml version="1.0" encoding="UTF-8"?>
<svg id="Layer_2" data-name="Layer 2" xmlns="http://www.w3.org/2000/svg" viewBox="0 0 109.88 128.84">
  <defs>
    <style>
      .cls-1 {
        fill: #19190e;
      }

      .cls-2 {
        fill: #1c0d0f;
      }

      .cls-3 {
        fill: #fff;
      }

      .cls-4 {
        fill: #5dba47;
      }
    </style>
  </defs>
  <g id="Layer_1-2" data-name="Layer 1">
    <g>
      <g>
        <path class="cls-2" d="M63.55,30.13c1.79,2.69,2.78,4.31,2.44,6.2-.02.13-.06.27-.09.39-.03.11-.07.21-.11.31-.15.42-.37.82-.66,1.2-.1.13-.2.26-.31.39-.01.01-.01.02-.02.02-.23.26-.48.51-.76.76-.05.05-.11.1-.17.15-.12.1-.24.2-.37.3-.16.13-.33.26-.51.39-.41.29-.85.58-1.32.87-.93.58-1.97,1.15-3.04,1.75-4.9,2.73-10.45,5.81-11.65,12.59-1.02,5.79,2.11,10.02,4.4,13.11,1.93,2.6,3,4.16,2.63,5.82-.54,2.44-3.91,4.1-7.49,5.86-4.65,2.3-10.45,5.16-11.4,11.5-.78,5.25,2.46,8.97,4.83,11.69.76.87,1.41,1.63,1.93,2.34.23.31.43.61.6.9.09.15.17.3.24.44.08.17.16.34.22.51.07.18.12.36.16.54.03.09.05.17.06.26.02.1.03.19.04.29,0,.12.02.24.02.37.01,1.03-.5,3.05-3.48,5.85h-7.55V4.6h35.54c-5.03,3.97-7.81,8.37-8.28,13.14-.52,5.4,2.04,9.28,4.1,12.39Z"/>
        <path class="cls-3" d="M49.66,55.92c-.83,4.64,1.69,8.03,3.9,11.03,2.02,2.72,3.75,5.06,3.1,8.02-.82,3.71-4.76,5.65-8.93,7.71-4.52,2.22-9.19,4.53-9.92,9.46-.6,4.01,1.95,6.93,4.19,9.51,1.01,1.16,2,2.29,2.73,3.49.09.15.18.3.26.46.08.14.16.29.23.44.08.16.15.33.21.49.06.15.12.3.16.44.02.06.04.11.06.17-.89.2-1.8.36-2.71.48-.06-.17-.14-.34-.22-.51-.07-.14-.15-.29-.24-.44-.17-.29-.37-.59-.6-.9-.52-.71-1.17-1.47-1.93-2.34-2.37-2.72-5.61-6.44-4.83-11.69.95-6.34,6.75-9.2,11.4-11.5,3.58-1.76,6.95-3.42,7.49-5.86.37-1.66-.7-3.22-2.63-5.82-2.29-3.09-5.42-7.32-4.4-13.11,1.2-6.78,6.75-9.86,11.65-12.59,1.07-.6,2.11-1.17,3.04-1.75.73.6,1.43,1.23,2.11,1.88-1.19.78-2.5,1.51-3.83,2.25-4.58,2.55-9.32,5.18-10.29,10.68Z"/>
        <path class="cls-3" d="M49.22,107.56c-.07-.44-.17-.87-.29-1.28.13.41.22.84.29,1.28Z"/>
        <path class="cls-3" d="M67.87,47.58c-.41.3-.82.57-1.24.83-1.25.8-2.52,1.51-3.71,2.17-3.64,2.02-6.78,3.77-7.25,6.41-.34,1.95.78,3.59,2.8,6.32,2.29,3.08,5.41,7.31,4.16,12.98-1.46,6.57-7.42,9.51-12.2,11.87-3.1,1.53-6.31,3.11-6.57,4.88-.18,1.16.93,2.5,2.75,4.59,1.06,1.22,2.23,2.57,3.22,4.14.13.2.25.4.37.61.24.43.47.87.68,1.33.06.13.11.26.17.39.17.41.33.84.46,1.28-.84.33-1.7.64-2.58.9-.05-.17-.1-.34-.16-.51s-.12-.33-.19-.5c-.07-.21-.16-.42-.26-.61-.13-.28-.27-.54-.41-.8-.93-1.67-2.18-3.1-3.35-4.44-2.02-2.32-3.76-4.32-3.39-6.78.47-3.18,4.16-4.99,8.06-6.92,4.48-2.21,9.57-4.72,10.74-10.02.99-4.46-1.49-7.81-3.68-10.77-2.07-2.8-3.86-5.22-3.29-8.41.69-3.92,4.53-6.05,8.6-8.31.83-.46,1.67-.93,2.51-1.43l.93-.57c.37-.24.75-.48,1.11-.74.6.68,1.17,1.39,1.72,2.11Z"/>
        <path class="cls-4" d="M49.66,55.92c-.83,4.64,1.69,8.03,3.9,11.03,2.02,2.72,3.75,5.06,3.1,8.02-.82,3.71-4.76,5.65-8.93,7.71-4.52,2.22-9.19,4.53-9.92,9.46-.6,4.01,1.95,6.93,4.19,9.51,1.01,1.16,2,2.29,2.73,3.49.09.15.18.3.26.46.08.14.16.29.23.44.08.16.15.33.21.49.06.15.12.3.16.44.02.06.04.11.06.17-.89.2-1.8.36-2.71.48-1.71.24-3.45.36-5.22.36-1.88,0-3.73-.14-5.53-.4C13.98,104.9,0,89.21,0,70.25s13.98-34.64,32.19-37.32c1.8-.26,3.65-.4,5.53-.4,9.1,0,17.44,3.22,23.95,8.58.73.6,1.43,1.23,2.11,1.88-1.19.78-2.5,1.51-3.83,2.25-4.58,2.55-9.32,5.18-10.29,10.68Z"/>
        <path class="cls-4" d="M75.44,70.25c0,15.97-9.91,29.62-23.93,35.13-.84.33-1.7.64-2.58.9-.05-.17-.1-.34-.16-.51s-.12-.33-.19-.5c-.07-.21-.16-.42-.26-.61-.13-.28-.27-.54-.41-.8-.93-1.67-2.18-3.1-3.35-4.44-2.02-2.32-3.76-4.32-3.39-6.78.47-3.18,4.16-4.99,8.06-6.92,4.48-2.21,9.57-4.72,10.74-10.02.99-4.46-1.49-7.81-3.68-10.77-2.07-2.8-3.86-5.22-3.29-8.41.69-3.92,4.53-6.05,8.6-8.31.83-.46,1.67-.93,2.51-1.43l.93-.57c.37-.24.75-.48,1.11-.74.6.68,1.17,1.39,1.72,2.11,4.75,6.31,7.57,14.16,7.57,22.67Z"/>
        <path class="cls-2" d="M65.54,18.33c-.32,3.25,1.35,5.76,3.11,8.43,1.94,2.94,4.15,6.26,3.35,10.66-.03.17-.07.35-.11.51-.04.17-.08.34-.13.5-.16.56-.36,1.09-.6,1.6-.07.15-.15.3-.23.45-.21.39-.44.76-.69,1.11-.12.17-.24.34-.37.5-.13.16-.26.32-.4.48-.12.15-.25.29-.37.42-.16.17-.32.33-.49.49-.15.14-.3.29-.46.43-.16.14-.32.28-.48.41s-.32.27-.49.4-.34.26-.51.38c-.17.13-.34.25-.52.37-.36.26-.74.5-1.11.74l-.93.57c-.84.5-1.68.97-2.51,1.43-4.07,2.26-7.91,4.39-8.6,8.31-.57,3.19,1.22,5.61,3.29,8.41,2.19,2.96,4.67,6.31,3.68,10.77-1.17,5.3-6.26,7.81-10.74,10.02-3.9,1.93-7.59,3.74-8.06,6.92-.37,2.46,1.37,4.46,3.39,6.78,1.17,1.34,2.42,2.77,3.35,4.44.14.26.28.52.41.8.1.19.19.4.26.61.07.17.13.33.19.5s.11.34.16.51c.12.41.22.84.29,1.28.08.48.12.99.12,1.51,0,1.98-.58,3.93-1.72,5.86-2.78,4.71-8.98,9.31-18.76,13.91l-1.45-3.07c7.74-3.64,13.14-7.31,16.04-10.84,1.64-2.01,2.49-3.97,2.49-5.86,0-.23-.01-.45-.04-.67-.01-.15-.03-.3-.06-.45-.03-.15-.05-.3-.09-.44-.03-.12-.06-.25-.1-.37-.02-.06-.04-.11-.06-.17-.04-.14-.1-.29-.16-.44-.06-.16-.13-.33-.21-.49-.07-.15-.15-.3-.23-.44-.08-.16-.17-.31-.26-.46-.73-1.2-1.72-2.33-2.73-3.49-2.24-2.58-4.79-5.5-4.19-9.51.73-4.93,5.4-7.24,9.92-9.46,4.17-2.06,8.11-4,8.93-7.71.65-2.96-1.08-5.3-3.1-8.02-2.21-3-4.73-6.39-3.9-11.03.97-5.5,5.71-8.13,10.29-10.68,1.33-.74,2.64-1.47,3.83-2.25.21-.14.41-.28.61-.42.17-.11.33-.23.49-.35.45-.34.87-.69,1.26-1.06.17-.16.33-.32.49-.48.04-.05.07-.09.11-.12.14-.16.28-.32.4-.48.07-.09.15-.18.21-.27.07-.09.14-.18.2-.28.01-.02.03-.04.04-.06.01-.01.02-.03.03-.04.1-.16.19-.31.27-.47.05-.09.1-.18.14-.27.08-.16.16-.32.23-.5.07-.16.13-.34.19-.52.02-.08.05-.17.07-.25.06-.2.1-.4.14-.6.55-3.06-1.02-5.44-2.84-8.19-1.92-2.9-4.1-6.18-3.66-10.63.47-4.85,3.92-9.34,10.24-13.4,2.49-1.6,5.42-3.14,8.8-4.6l1.35,3.12c-1.13.49-2.19.98-3.21,1.48-8.68,4.25-13.33,8.86-13.8,13.73Z"/>
        <path class="cls-1" d="M49.22,107.56c-.07-.44-.17-.87-.29-1.28.13.41.22.84.29,1.28Z"/>
      </g>
      <path class="cls-2" d="M109.88,4.6v110.33h-59.18c.9-1.92,1.35-3.87,1.35-5.86,0-.51-.03-1-.09-1.47,0-.13-.03-.27-.05-.4-.04-.3-.09-.59-.16-.88-.04-.22-.1-.44-.16-.65-.02-.09-.05-.19-.08-.29-.13-.44-.29-.87-.46-1.28-.06-.13-.11-.26-.17-.39-.21-.46-.44-.9-.68-1.33-.12-.21-.24-.41-.37-.61-.99-1.57-2.16-2.92-3.22-4.14-1.82-2.09-2.93-3.43-2.75-4.59.26-1.77,3.47-3.35,6.57-4.88,4.78-2.36,10.74-5.3,12.2-11.87,1.25-5.67-1.87-9.9-4.16-12.98-2.02-2.73-3.14-4.37-2.8-6.32.47-2.64,3.61-4.39,7.25-6.41,1.19-.66,2.46-1.37,3.71-2.17.42-.26.83-.53,1.24-.83.4-.27.79-.56,1.17-.87.19-.14.38-.3.56-.46.18-.15.37-.31.55-.48.18-.16.36-.33.54-.51,1.16-1.15,2.17-2.46,2.9-4.01.07-.13.13-.26.18-.39.2-.44.37-.9.52-1.38.07-.24.14-.49.2-.74.07-.27.13-.55.18-.83,1-5.47-1.75-9.62-3.76-12.65-1.79-2.72-2.88-4.49-2.67-6.66.42-4.33,5.74-8.82,15.39-12.99l2.33-1.01h23.92Z"/>
      <rect class="cls-2" x="19.05" y="17.09" width="3.39" height="10.35" transform="translate(-5.27 6.48) rotate(-15.78)"/>
      <rect class="cls-2" x="10.34" y="14.57" width="3.4" height="19" transform="translate(-9.27 7.62) rotate(-25.76)"/>
    </g>
  </g>
</svg>