<?xml version="1.0" encoding="UTF-8"?>
<svg id="Layer_2" data-name="Layer 2" xmlns="http://www.w3.org/2000/svg" viewBox="0 0 324 432">
  <defs>
    <style>
      .cls-1 {
        font-family: BradleyHandITCTT-Bold, 'Bradley Hand';
        font-size: 15.48px;
        font-weight: 700;
      }

      .cls-1, .cls-2, .cls-3, .cls-4 {
        fill: #fff;
      }

      .cls-2 {
        font-size: 20.64px;
      }

      .cls-2, .cls-3, .cls-4 {
        font-family: Arial-Black, 'Arial Black';
        font-weight: 800;
      }

      .cls-5, .cls-6 {
        font-family: Baskerville, Baskerville;
      }

      .cls-3 {
        font-size: 51.59px;
      }

      .cls-7, .cls-8 {
        fill: #231f20;
      }

      .cls-9, .cls-4, .cls-10 {
        font-size: 61.91px;
      }

      .cls-9, .cls-10 {
        fill: #ed1c24;
      }

      .cls-11 {
        letter-spacing: .03em;
      }

      .cls-11, .cls-12, .cls-10 {
        font-family: MarkerFelt-Wide, 'Marker Felt';
      }

      .cls-13 {
        stroke: #ed1c24;
        stroke-width: 4.9px;
      }

      .cls-13, .cls-14, .cls-15, .cls-16, .cls-17 {
        fill: none;
      }

      .cls-13, .cls-14, .cls-15, .cls-16, .cls-17, .cls-10 {
        stroke-miterlimit: 10;
      }

      .cls-6 {
        letter-spacing: -.06em;
      }

      .cls-18 {
        fill: #ffde17;
      }

      .cls-14 {
        stroke-width: .67px;
      }

      .cls-14, .cls-15, .cls-16, .cls-17, .cls-10 {
        stroke: #231f20;
      }

      .cls-15 {
        stroke-width: 1.02px;
      }

      .cls-16 {
        stroke-width: 1.02px;
      }

      .cls-17 {
        stroke-width: 1.02px;
      }

      .cls-8 {
        font-family: ArialRoundedMTBold, 'Arial Rounded MT Bold';
        font-size: 18.81px;
      }

      .cls-10 {
        stroke-width: 4.5px;
      }

      .cls-19 {
        letter-spacing: -.11em;
      }

      .cls-20 {
        letter-spacing: -.02em;
      }

      .cls-21 {
        letter-spacing: .03em;
      }

      .cls-22 {
        letter-spacing: .04em;
      }
    </style>
  </defs>
  <g id="Layer_1-2" data-name="Layer 1">
    <g>
      <rect class="cls-7" width="324" height="432"/>
      <g>
        <text class="cls-2" transform="translate(144.78 102.88)"><tspan class="cls-21" x="0" y="0">T</tspan><tspan x="15.46" y="0">he</tspan></text>
        <text class="cls-2" transform="translate(149.66 174)"><tspan x="0" y="0">OR</tspan></text>
        <text class="cls-9" transform="translate(58.47 228.12)"><tspan class="cls-6" x="0" y="0">D</tspan><tspan class="cls-5" x="43.05" y="0">ARE</tspan><tspan class="cls-11" x="168.8" y="0">’</tspan><tspan class="cls-12" x="184.09" y="0">S</tspan></text>
        <text class="cls-4" transform="translate(70.01 284.11)"><tspan x="0" y="0">DECK</tspan></text>
        <text class="cls-3" transform="translate(66.42 150.92)"><tspan x="0" y="0">T</tspan><tspan class="cls-20" x="37.26" y="0">R</tspan><tspan x="76.5" y="0">UTH</tspan></text>
        <text class="cls-10" transform="translate(96.13 178.01) rotate(-7.44)"><tspan x="0" y="0">O</tspan><tspan class="cls-22" x="39" y="0">N</tspan><tspan class="cls-19" x="79.74" y="0">L</tspan><tspan x="102.89" y="0">Y</tspan></text>
        <text class="cls-1" transform="translate(78.51 347.58)"><tspan x="0" y="0">A card game for when you </tspan><tspan x="-6.94" y="13.76">really want to have some fun</tspan></text>
      </g>
      <rect class="cls-13" x="28.07" y="25.2" width="267.87" height="381.61"/>
      <g>
        <circle class="cls-18" cx="56.22" cy="51.39" r="14.82"/>
        <circle class="cls-16" cx="56.22" cy="51.39" r="13.36"/>
        <g>
          <polygon class="cls-18" points="56.21 51.4 56.21 51.4 56.21 51.4 56.21 51.4"/>
          <path class="cls-7" d="M56.22,48.41c.54,0,1.05.15,1.49.4l4.37-7.56c-1.72-.99-3.71-1.55-5.83-1.55s-4.15.58-5.88,1.58l4.36,7.54c.44-.26.95-.41,1.5-.41Z"/>
          <path class="cls-18" d="M53.62,49.9c.27-.47.65-.84,1.09-1.09l-4.37-7.56c-1.71.99-3.2,2.44-4.26,4.27s-1.57,3.88-1.57,5.88h8.71c0-.51.12-1.03.4-1.5Z"/>
          <path class="cls-7" d="M53.62,52.89c-.27-.47-.4-.98-.4-1.49h-8.73c0,1.98.51,3.99,1.57,5.83s2.57,3.3,4.31,4.3l4.36-7.54c-.44-.25-.83-.62-1.1-1.1Z"/>
          <path class="cls-18" d="M56.21,54.39c-.54,0-1.05-.15-1.49-.4l-4.37,7.56c1.72.99,3.71,1.55,5.83,1.55s4.15-.58,5.88-1.58l-4.36-7.54c-.44.26-.95.41-1.5.41Z"/>
          <path class="cls-7" d="M58.8,52.9c-.27.47-.65.84-1.09,1.09l4.37,7.56c1.71-.99,3.2-2.44,4.26-4.27,1.07-1.86,1.57-3.88,1.57-5.88h-8.71c0,.51-.12,1.03-.4,1.5Z"/>
          <path class="cls-18" d="M58.81,49.91c.27.47.4.98.4,1.49h8.73c0-1.98-.51-3.99-1.57-5.83s-2.57-3.3-4.31-4.3l-4.36,7.54c.44.25.83.62,1.1,1.1Z"/>
          <circle class="cls-7" cx="56.22" cy="51.39" r="2.26"/>
        </g>
      </g>
      <g>
        <path class="cls-18" d="M157.49,38.44l-13.84,23.97c-.74,1.29.19,2.9,1.67,2.9h27.68c1.49,0,2.42-1.61,1.67-2.9l-13.84-23.97c-.74-1.29-2.6-1.29-3.35,0Z"/>
        <text class="cls-8" transform="translate(156.03 60.81)"><tspan x="0" y="0">!</tspan></text>
        <path class="cls-15" d="M158.24,40.23l-12.66,21.92c-.41.71.1,1.6.92,1.6h25.32c.82,0,1.34-.89.92-1.6l-12.66-21.92c-.41-.71-1.44-.71-1.85,0Z"/>
      </g>
      <g>
        <g>
          <circle class="cls-18" cx="90.29" cy="51.39" r="14.82"/>
          <circle class="cls-17" cx="90.29" cy="51.39" r="13.36"/>
        </g>
        <g>
          <g>
            <path class="cls-7" d="M84.5,57.55c-.16-8.32,11.78-8.1,11.43.12-.75,6.9-10.89,6.81-11.43-.12h0ZM85.52,57.56c-.34,6.93,9.76,7,9.5.1-.54-5.6-8.85-5.63-9.5-.1h0Z"/>
            <path class="cls-7" d="M87.85,43.29c7.28,4.02,1.12,14.26-5.82,9.84-5.6-4.1-.45-12.84,5.82-9.84h0ZM87.33,44.17c-5.83-3.76-10.94,4.95-4.83,8.18,5.12,2.33,9.3-4.85,4.83-8.18h0Z"/>
            <path class="cls-7" d="M98.52,53.32c-7.13,4.29-12.91-6.15-5.61-9.96,6.35-2.8,11.34,6.03,5.61,9.96h0ZM98.02,52.43c6.17-3.17,1.18-11.95-4.66-8.27-4.58,3.27-.45,10.48,4.66,8.27h0Z"/>
          </g>
          <circle class="cls-14" cx="90.29" cy="51.39" r="4.5"/>
        </g>
      </g>
      <g>
        <g>
          <circle class="cls-18" cx="125.34" cy="51.39" r="14.82"/>
          <circle class="cls-17" cx="125.34" cy="51.39" r="13.36"/>
        </g>
        <path class="cls-7" d="M126.16,59.33c-2.94.25-5.89-1.29-7.08-3.42-1.96-3.53.24-9.89,6.73-13.69-3.08,4.08-4.36,8.17-2.85,10.38.12.18,1.21,1.78,2.74,1.71,1.36-.06,2.2-1.41,2.4-1.71,1.28-2.04.25-4.48.11-4.79,3.22,1.63,4.72,5.02,3.82,7.68-1.14,3.37-5.55,3.82-5.88,3.85Z"/>
      </g>
    </g>
  </g>
</svg>